<svg width="16" height="17" viewBox="0 0 16 17" fill="none" xmlns="http://www.w3.org/2000/svg">
<path d="M10.6667 14.2778C8.44 14.2778 6.50667 13.0156 5.54221 11.1667H10.6667V9.38888H4.96446C4.92 9.1 4.88892 8.80221 4.88892 8.5C4.88892 8.19779 4.92004 7.9 4.96446 7.61113H10.6667V5.83333H5.54221C6.50667 3.98446 8.43554 2.72221 10.6667 2.72221C12.1022 2.72221 13.4133 3.24667 14.4222 4.11333L16 2.54446C14.5867 1.27779 12.7155 0.5 10.6667 0.5C7.18667 0.5 4.23112 2.72667 3.13333 5.83333H0V7.61113H2.72C2.68446 7.90446 2.66667 8.19779 2.66667 8.5C2.66667 8.80221 2.68446 9.09554 2.72 9.38888H0V11.1667H3.13333C4.23112 14.2733 7.18667 16.5 10.6667 16.5C12.7155 16.5 14.5867 15.7222 16 14.4555L14.4222 12.8822C13.4133 13.7489 12.1022 14.2778 10.6667 14.2778Z" fill="white"/>
</svg>
