<svg width="16" height="17" viewBox="0 0 16 17" fill="none" xmlns="http://www.w3.org/2000/svg">
<g clip-path="url(#clip0)">
<path d="M15.63 10.604L13.942 9.27998C13.974 9.02397 13.998 8.76398 13.998 8.49998C13.998 8.23598 13.974 7.97599 13.942 7.71998L15.634 6.39597C15.786 6.27597 15.83 6.05997 15.73 5.88398L14.13 3.11199C14.03 2.93997 13.822 2.86797 13.642 2.93997L11.65 3.74397C11.238 3.42796 10.786 3.15999 10.298 2.95599L9.99803 0.836C9.96199 0.648012 9.798 0.5 9.59801 0.5H6.39803C6.19804 0.5 6.03402 0.648012 6.00203 0.836L5.70203 2.95599C5.21404 3.15999 4.76202 3.42399 4.35004 3.74397L2.35804 2.93997C2.17805 2.87199 1.97003 2.93997 1.87006 3.11199L0.270009 5.88398C0.169996 6.056 0.214021 6.272 0.366009 6.39597L2.054 7.71998C2.02201 7.97599 1.99801 8.23598 1.99801 8.49998C1.99801 8.76398 2.02201 9.02397 2.054 9.27998L0.366009 10.604C0.214021 10.724 0.169996 10.94 0.270009 11.116L1.87002 13.888C1.97003 14.06 2.17801 14.132 2.35801 14.06L4.35001 13.256C4.76202 13.572 5.214 13.84 5.70199 14.044L6.00199 16.164C6.03398 16.352 6.198 16.5 6.39799 16.5H9.59798C9.79796 16.5 9.96199 16.352 9.99398 16.164L10.294 14.044C10.782 13.84 11.234 13.576 11.646 13.256L13.638 14.06C13.818 14.128 14.026 14.06 14.1259 13.888L15.726 11.116C15.826 10.944 15.782 10.728 15.63 10.604ZM7.998 11.3C6.45 11.3 5.19799 10.048 5.19799 8.49998C5.19799 6.95198 6.45 5.70001 7.998 5.70001C9.546 5.70001 10.798 6.95202 10.798 8.50002C10.798 10.048 9.546 11.3 7.998 11.3Z" fill="white"/>
</g>
<defs>
<clipPath id="clip0">
<rect width="16" height="16" fill="white" transform="translate(0 0.5)"/>
</clipPath>
</defs>
</svg>
